<!-- GENERATED by scripts/make_brand_assets.sh from logo-icon.svg. Do not edit. -->
<svg viewBox="0 0 100 48" xmlns="http://www.w3.org/2000/svg" role="img" aria-label="Koetai">
  <defs>
    <!-- Body gradient: darker at tail, lighter toward snout -->
    <linearGradient id="body" x1="0" y1="0" x2="1" y2="0">
      <stop offset="0%"   stop-color="#9fc4ea"/>
      <stop offset="60%"  stop-color="#cfe2f7"/>
      <stop offset="100%" stop-color="#eaf3fc"/>
    </linearGradient>
    <!-- Scale texture overlay -->
    <linearGradient id="sheen" x1="0" y1="0" x2="0" y2="1">
      <stop offset="0%"   stop-color="#ffffff" stop-opacity="0.10"/>
      <stop offset="50%"  stop-color="#ffffff" stop-opacity="0.03"/>
      <stop offset="100%" stop-color="#000000" stop-opacity="0.08"/>
    </linearGradient>

    <!-- Clip paths for the bisected eye -->
    <clipPath id="eye-upper">
      <rect x="66" y="10" width="16" height="8"/>
    </clipPath>
    <clipPath id="eye-lower">
      <rect x="66" y="18" width="16" height="8"/>
    </clipPath>
    <clipPath id="eye-ring">
      <circle cx="74" cy="18" r="7.5"/>
    </clipPath>
  </defs>

  <!-- ── Tail fins ─────────────────────────────────────────────── -->
  <!-- Upper lobe -->
  <path d="M 18,15 C 12,9 5,7 6,13 C 7,17 13,17 18,17 Z"
        fill="#3ecfb8"/>
  <!-- Lower lobe -->
  <path d="M 18,31 C 12,37 5,40 6,34 C 7,30 13,30 18,30 Z"
        fill="#3ecfb8"/>

  <!-- ── Main body ──────────────────────────────────────────────── -->
  <path d="M 18,15
           C 30,10 50,8  66,10
           C 78,11 88,16 91,23
           C 88,30 78,35 66,36
           C 50,38 30,36 18,31 Z"
        fill="url(#body)"/>

  <!-- Sheen overlay (subtle top-lighting) -->
  <path d="M 18,15
           C 30,10 50,8  66,10
           C 78,11 88,16 91,23
           C 88,30 78,35 66,36
           C 50,38 30,36 18,31 Z"
        fill="url(#sheen)"/>

  <!-- ── Lateral stripes ────────────────────────────────────────── -->
  <path d="M 22,21 C 42,19 62,19 80,22"
        stroke="#4a7fc1" stroke-width="1.1" fill="none" opacity="0.55"/>
  <path d="M 22,25 C 42,23 62,23 80,26"
        stroke="#4a7fc1" stroke-width="0.8" fill="none" opacity="0.38"/>

  <!-- ── Dorsal fin ─────────────────────────────────────────────── -->
  <path d="M 42,10 C 46,4 54,4 58,10"
        stroke="#3ecfb8" stroke-width="1.5" fill="none" stroke-linecap="round"/>

  <!-- ── Pectoral fin (below body near head) ───────────────────── -->
  <path d="M 68,35 C 62,42 56,44 58,39 Z"
        fill="#3ecfb8" opacity="0.85"/>

  <!-- ── The four-eyed eye ──────────────────────────────────────── -->
  <!-- Outer ring / shadow -->
  <circle cx="74" cy="18" r="8.5" fill="#091525"/>
  <!-- Upper half — pale sky (above-water vision) -->
  <circle cx="74" cy="18" r="7.5" fill="#d6eaf8" clip-path="url(#eye-upper)"/>
  <!-- Lower half — teal (below-water vision) -->
  <circle cx="74" cy="18" r="7.5" fill="#3ecfb8" clip-path="url(#eye-lower)"/>
  <!-- Horizontal dividing band (the opaque conjunctival membrane) -->
  <rect x="66.5" y="17" width="15" height="2.2"
        fill="#091525" clip-path="url(#eye-ring)"/>
  <!-- Upper pupil -->
  <circle cx="74" cy="14.5" r="2.2" fill="#091525"/>
  <!-- Lower pupil -->
  <circle cx="74" cy="21.5" r="2.0" fill="#091525"/>
  <!-- Specular highlights -->
  <circle cx="76"   cy="13"   r="1.0" fill="white" opacity="0.70"/>
  <circle cx="75.5" cy="20.5" r="0.7" fill="white" opacity="0.50"/>
</svg>
